<?xml version="1.0" encoding="UTF-8" standalone="no"?>
<svg
   xmlns:ns1="http://wanglongqi.github.io/WriteTeX"
   xmlns:dc="http://purl.org/dc/elements/1.1/"
   xmlns:cc="http://creativecommons.org/ns#"
   xmlns:rdf="http://www.w3.org/1999/02/22-rdf-syntax-ns#"
   xmlns:svg="http://www.w3.org/2000/svg"
   xmlns="http://www.w3.org/2000/svg"
   xmlns:sodipodi="http://sodipodi.sourceforge.net/DTD/sodipodi-0.dtd"
   xmlns:inkscape="http://www.inkscape.org/namespaces/inkscape"
   width="10.759556cm"
   height="4.3041415cm"
   viewBox="0 0 107.59556 43.041415"
   version="1.1"
   id="svg8"
   sodipodi:docname="PredicitonOverview.svg"
   inkscape:version="1.0.1 (3bc2e813f5, 2020-09-07)">
  <defs
     id="defs2">
    <rect
       x="98.593384"
       y="-19.41732"
       width="15.119048"
       height="13.040179"
       id="rect1767" />
    <g
       id="g5250">
      <symbol
         overflow="visible"
         id="symbol4090">
        <path
           style="stroke:none"
           d=""
           id="path1064" />
      </symbol>
      <symbol
         overflow="visible"
         id="symbol6098">
        <path
           style="stroke:none"
           d="M 2.5,-6.921875 1.15625,-5.5625 1.328125,-5.390625 2.5,-6.40625 3.640625,-5.390625 3.8125,-5.5625 Z m 0,0"
           id="path1018" />
      </symbol>
      <symbol
         overflow="visible"
         id="symbol3097">
        <path
           style="stroke:none"
           d=""
           id="path7075" />
      </symbol>
      <symbol
         overflow="visible"
         id="symbol9590">
        <path
           style="stroke:none"
           d="M 2.625,-4.359375 C 1.390625,-4.0625 0.421875,-2.765625 0.421875,-1.5625 0.421875,-0.59375 1.0625,0.125 2,0.125 c 1.15625,0 1.984375,-1.578125 1.984375,-2.953125 0,-0.90625 -0.390625,-1.40625 -0.734375,-1.84375 C 2.890625,-5.125 2.296875,-5.875 2.296875,-6.3125 c 0,-0.21875 0.203125,-0.453125 0.546875,-0.453125 0.3125,0 0.5,0.125 0.71875,0.265625 0.203125,0.125 0.390625,0.25 0.546875,0.25 C 4.359375,-6.25 4.5,-6.484375 4.5,-6.65625 4.5,-6.875 4.34375,-6.890625 3.984375,-6.984375 3.46875,-7.09375 3.328125,-7.09375 3.171875,-7.09375 c -0.78125,0 -1.140625,0.4375 -1.140625,1.03125 0,0.546875 0.296875,1.09375 0.59375,1.703125 z m 0.125,0.21875 c 0.25,0.46875 0.546875,1 0.546875,1.71875 0,0.65625 -0.375,2.328125 -1.296875,2.328125 -0.546875,0 -0.96875,-0.421875 -0.96875,-1.1875 0,-0.625 0.375,-2.5 1.71875,-2.859375 z m 0,0"
           id="path5064" />
      </symbol>
      <symbol
         overflow="visible"
         id="symbol6011">
        <path
           style="stroke:none"
           d=""
           id="path3584" />
      </symbol>
      <symbol
         overflow="visible"
         id="symbol5953">
        <path
           style="stroke:none"
           d="M 3.59375,-2.21875 C 3.59375,-2.984375 3.5,-3.546875 3.1875,-4.03125 2.96875,-4.34375 2.53125,-4.625 1.984375,-4.625 c -1.625,0 -1.625,1.90625 -1.625,2.40625 0,0.5 0,2.359375 1.625,2.359375 1.609375,0 1.609375,-1.859375 1.609375,-2.359375 z M 1.984375,-0.0625 c -0.328125,0 -0.75,-0.1875 -0.890625,-0.75 C 1,-1.21875 1,-1.796875 1,-2.3125 1,-2.828125 1,-3.359375 1.09375,-3.734375 1.25,-4.28125 1.6875,-4.4375 1.984375,-4.4375 c 0.375,0 0.734375,0.234375 0.859375,0.640625 0.109375,0.375 0.125,0.875 0.125,1.484375 0,0.515625 0,1.03125 -0.09375,1.46875 -0.140625,0.640625 -0.609375,0.78125 -0.890625,0.78125 z m 0,0"
           id="path6013" />
      </symbol>
    </g>
    <g
       id="g6719">
      <symbol
         overflow="visible"
         id="symbol6133">
        <path
           style="stroke:none"
           d=""
           id="path5648" />
      </symbol>
      <symbol
         overflow="visible"
         id="symbol4917">
        <path
           style="stroke:none"
           d="M 3.328125,-3.015625 C 3.390625,-3.265625 3.625,-4.1875 4.3125,-4.1875 c 0.046875,0 0.296875,0 0.5,0.125 C 4.53125,-4 4.34375,-3.765625 4.34375,-3.515625 c 0,0.15625 0.109375,0.34375 0.375,0.34375 0.21875,0 0.53125,-0.171875 0.53125,-0.578125 0,-0.515625 -0.578125,-0.65625 -0.921875,-0.65625 -0.578125,0 -0.921875,0.53125 -1.046875,0.75 -0.25,-0.65625 -0.78125,-0.75 -1.078125,-0.75 -1.03125,0 -1.609375,1.28125 -1.609375,1.53125 0,0.109375 0.109375,0.109375 0.125,0.109375 0.078125,0 0.109375,-0.03125 0.125,-0.109375 0.34375,-1.0625 1,-1.3125 1.34375,-1.3125 0.1875,0 0.53125,0.09375 0.53125,0.671875 0,0.3125 -0.171875,0.96875 -0.53125,2.375 -0.15625,0.609375 -0.515625,1.03125 -0.953125,1.03125 -0.0625,0 -0.28125,0 -0.5,-0.125 0.25,-0.0625 0.46875,-0.265625 0.46875,-0.546875 0,-0.265625 -0.21875,-0.34375 -0.359375,-0.34375 -0.3125,0 -0.546875,0.25 -0.546875,0.578125 0,0.453125 0.484375,0.65625 0.921875,0.65625 0.671875,0 1.03125,-0.703125 1.046875,-0.75 0.125,0.359375 0.484375,0.75 1.078125,0.75 1.03125,0 1.59375,-1.28125 1.59375,-1.53125 0,-0.109375 -0.078125,-0.109375 -0.109375,-0.109375 -0.09375,0 -0.109375,0.046875 -0.140625,0.109375 -0.328125,1.078125 -1,1.3125 -1.3125,1.3125 -0.390625,0 -0.546875,-0.3125 -0.546875,-0.65625 0,-0.21875 0.046875,-0.4375 0.15625,-0.875 z m 0,0"
           id="path5024" />
      </symbol>
      <symbol
         overflow="visible"
         id="symbol6">
        <path
           style="stroke:none"
           d="m 0.875,-0.59375 c -0.03125,0.15625 -0.09375,0.390625 -0.09375,0.4375 0,0.171875 0.140625,0.265625 0.296875,0.265625 0.125,0 0.296875,-0.078125 0.375,-0.28125 0,-0.015625 0.125,-0.484375 0.1875,-0.734375 l 0.21875,-0.890625 C 1.90625,-2.03125 1.96875,-2.25 2.03125,-2.46875 c 0.03125,-0.171875 0.109375,-0.46875 0.125,-0.5 0.140625,-0.3125 0.671875,-1.21875 1.625,-1.21875 0.453125,0 0.53125,0.375 0.53125,0.703125 0,0.609375 -0.484375,1.890625 -0.640625,2.3125 C 3.578125,-0.9375 3.5625,-0.8125 3.5625,-0.703125 c 0,0.46875 0.359375,0.8125 0.828125,0.8125 0.9375,0 1.296875,-1.453125 1.296875,-1.53125 0,-0.109375 -0.078125,-0.109375 -0.109375,-0.109375 -0.109375,0 -0.109375,0.03125 -0.15625,0.1875 -0.203125,0.671875 -0.53125,1.234375 -1.015625,1.234375 -0.171875,0 -0.234375,-0.09375 -0.234375,-0.328125 0,-0.25 0.078125,-0.484375 0.171875,-0.703125 0.1875,-0.53125 0.609375,-1.625 0.609375,-2.203125 0,-0.65625 -0.421875,-1.0625 -1.140625,-1.0625 -0.90625,0 -1.390625,0.640625 -1.5625,0.875 -0.046875,-0.5625 -0.453125,-0.875 -0.921875,-0.875 -0.453125,0 -0.640625,0.390625 -0.734375,0.5625 C 0.421875,-3.5 0.296875,-2.90625 0.296875,-2.875 c 0,0.109375 0.09375,0.109375 0.109375,0.109375 0.109375,0 0.109375,-0.015625 0.171875,-0.234375 0.171875,-0.703125 0.375,-1.1875 0.734375,-1.1875 0.1875,0 0.296875,0.125 0.296875,0.453125 0,0.21875 -0.03125,0.328125 -0.15625,0.84375 z m 0,0"
           id="path3358" />
      </symbol>
      <symbol
         overflow="visible"
         id="symbol7009">
        <path
           style="stroke:none"
           d=""
           id="path2651" />
      </symbol>
      <symbol
         overflow="visible"
         id="symbol4075">
        <path
           style="stroke:none"
           d="m 3.296875,2.390625 c 0,-0.03125 0,-0.046875 -0.171875,-0.21875 C 1.890625,0.921875 1.5625,-0.96875 1.5625,-2.5 c 0,-1.734375 0.375,-3.46875 1.609375,-4.703125 0.125,-0.125 0.125,-0.140625 0.125,-0.171875 0,-0.078125 -0.03125,-0.109375 -0.09375,-0.109375 -0.109375,0 -1,0.6875 -1.59375,1.953125 -0.5,1.09375 -0.625,2.203125 -0.625,3.03125 0,0.78125 0.109375,1.984375 0.65625,3.125 C 2.25,1.84375 3.09375,2.5 3.203125,2.5 c 0.0625,0 0.09375,-0.03125 0.09375,-0.109375 z m 0,0"
           id="path9232" />
      </symbol>
      <symbol
         overflow="visible"
         id="symbol788">
        <path
           style="stroke:none"
           d="m 2.875,-2.5 c 0,-0.765625 -0.109375,-1.96875 -0.65625,-3.109375 -0.59375,-1.21875 -1.453125,-1.875 -1.546875,-1.875 -0.0625,0 -0.109375,0.046875 -0.109375,0.109375 0,0.03125 0,0.046875 0.1875,0.234375 0.984375,0.984375 1.546875,2.5625 1.546875,4.640625 0,1.71875 -0.359375,3.46875 -1.59375,4.71875 C 0.5625,2.34375 0.5625,2.359375 0.5625,2.390625 0.5625,2.453125 0.609375,2.5 0.671875,2.5 0.765625,2.5 1.671875,1.8125 2.25,0.546875 2.765625,-0.546875 2.875,-1.65625 2.875,-2.5 Z m 0,0"
           id="path2997" />
      </symbol>
    </g>
    <clipPath
       clipPathUnits="userSpaceOnUse"
       id="clipEmfPath1">
      <path
         d="M 0,-5.0015748 H 394.12409 V 165.05197 H 0 Z"
         id="path1302" />
    </clipPath>
    <pattern
       id="EMFhbasepattern"
       patternUnits="userSpaceOnUse"
       width="6"
       height="6"
       x="0"
       y="0" />
    <clipPath
       clipPathUnits="userSpaceOnUse"
       id="clipEmfPath1-9">
      <path
         d="M 0,-5.0015748 H 394.12409 V 165.05197 H 0 Z"
         id="path1507" />
    </clipPath>
    <pattern
       id="EMFhbasepattern-8"
       patternUnits="userSpaceOnUse"
       width="6"
       height="6"
       x="0"
       y="0" />
    <g
       id="g7193">
      <symbol
         overflow="visible"
         id="symbol9201">
        <path
           style="stroke:none"
           d=""
           id="path9424" />
      </symbol>
      <symbol
         overflow="visible"
         id="symbol8818">
        <path
           style="stroke:none"
           d="M 3.328125,-3.015625 C 3.390625,-3.265625 3.625,-4.1875 4.3125,-4.1875 c 0.046875,0 0.296875,0 0.5,0.125 C 4.53125,-4 4.34375,-3.765625 4.34375,-3.515625 c 0,0.15625 0.109375,0.34375 0.375,0.34375 0.21875,0 0.53125,-0.171875 0.53125,-0.578125 0,-0.515625 -0.578125,-0.65625 -0.921875,-0.65625 -0.578125,0 -0.921875,0.53125 -1.046875,0.75 -0.25,-0.65625 -0.78125,-0.75 -1.078125,-0.75 -1.03125,0 -1.609375,1.28125 -1.609375,1.53125 0,0.109375 0.109375,0.109375 0.125,0.109375 0.078125,0 0.109375,-0.03125 0.125,-0.109375 0.34375,-1.0625 1,-1.3125 1.34375,-1.3125 0.1875,0 0.53125,0.09375 0.53125,0.671875 0,0.3125 -0.171875,0.96875 -0.53125,2.375 -0.15625,0.609375 -0.515625,1.03125 -0.953125,1.03125 -0.0625,0 -0.28125,0 -0.5,-0.125 0.25,-0.0625 0.46875,-0.265625 0.46875,-0.546875 0,-0.265625 -0.21875,-0.34375 -0.359375,-0.34375 -0.3125,0 -0.546875,0.25 -0.546875,0.578125 0,0.453125 0.484375,0.65625 0.921875,0.65625 0.671875,0 1.03125,-0.703125 1.046875,-0.75 0.125,0.359375 0.484375,0.75 1.078125,0.75 1.03125,0 1.59375,-1.28125 1.59375,-1.53125 0,-0.109375 -0.078125,-0.109375 -0.109375,-0.109375 -0.09375,0 -0.109375,0.046875 -0.140625,0.109375 -0.328125,1.078125 -1,1.3125 -1.3125,1.3125 -0.390625,0 -0.546875,-0.3125 -0.546875,-0.65625 0,-0.21875 0.046875,-0.4375 0.15625,-0.875 z m 0,0"
           id="path3347" />
      </symbol>
      <symbol
         overflow="visible"
         id="symbol8848">
        <path
           style="stroke:none"
           d="m 0.875,-0.59375 c -0.03125,0.15625 -0.09375,0.390625 -0.09375,0.4375 0,0.171875 0.140625,0.265625 0.296875,0.265625 0.125,0 0.296875,-0.078125 0.375,-0.28125 0,-0.015625 0.125,-0.484375 0.1875,-0.734375 l 0.21875,-0.890625 C 1.90625,-2.03125 1.96875,-2.25 2.03125,-2.46875 c 0.03125,-0.171875 0.109375,-0.46875 0.125,-0.5 0.140625,-0.3125 0.671875,-1.21875 1.625,-1.21875 0.453125,0 0.53125,0.375 0.53125,0.703125 0,0.609375 -0.484375,1.890625 -0.640625,2.3125 C 3.578125,-0.9375 3.5625,-0.8125 3.5625,-0.703125 c 0,0.46875 0.359375,0.8125 0.828125,0.8125 0.9375,0 1.296875,-1.453125 1.296875,-1.53125 0,-0.109375 -0.078125,-0.109375 -0.109375,-0.109375 -0.109375,0 -0.109375,0.03125 -0.15625,0.1875 -0.203125,0.671875 -0.53125,1.234375 -1.015625,1.234375 -0.171875,0 -0.234375,-0.09375 -0.234375,-0.328125 0,-0.25 0.078125,-0.484375 0.171875,-0.703125 0.1875,-0.53125 0.609375,-1.625 0.609375,-2.203125 0,-0.65625 -0.421875,-1.0625 -1.140625,-1.0625 -0.90625,0 -1.390625,0.640625 -1.5625,0.875 -0.046875,-0.5625 -0.453125,-0.875 -0.921875,-0.875 -0.453125,0 -0.640625,0.390625 -0.734375,0.5625 C 0.421875,-3.5 0.296875,-2.90625 0.296875,-2.875 c 0,0.109375 0.09375,0.109375 0.109375,0.109375 0.109375,0 0.109375,-0.015625 0.171875,-0.234375 0.171875,-0.703125 0.375,-1.1875 0.734375,-1.1875 0.1875,0 0.296875,0.125 0.296875,0.453125 0,0.21875 -0.03125,0.328125 -0.15625,0.84375 z m 0,0"
           id="path6009" />
      </symbol>
      <symbol
         overflow="visible"
         id="symbol46">
        <path
           style="stroke:none"
           d=""
           id="path9163" />
      </symbol>
      <symbol
         overflow="visible"
         id="symbol4261">
        <path
           style="stroke:none"
           d="m 3.296875,2.390625 c 0,-0.03125 0,-0.046875 -0.171875,-0.21875 C 1.890625,0.921875 1.5625,-0.96875 1.5625,-2.5 c 0,-1.734375 0.375,-3.46875 1.609375,-4.703125 0.125,-0.125 0.125,-0.140625 0.125,-0.171875 0,-0.078125 -0.03125,-0.109375 -0.09375,-0.109375 -0.109375,0 -1,0.6875 -1.59375,1.953125 -0.5,1.09375 -0.625,2.203125 -0.625,3.03125 0,0.78125 0.109375,1.984375 0.65625,3.125 C 2.25,1.84375 3.09375,2.5 3.203125,2.5 c 0.0625,0 0.09375,-0.03125 0.09375,-0.109375 z m 0,0"
           id="path9929" />
      </symbol>
      <symbol
         overflow="visible"
         id="symbol5299">
        <path
           style="stroke:none"
           d="m 2.875,-2.5 c 0,-0.765625 -0.109375,-1.96875 -0.65625,-3.109375 -0.59375,-1.21875 -1.453125,-1.875 -1.546875,-1.875 -0.0625,0 -0.109375,0.046875 -0.109375,0.109375 0,0.03125 0,0.046875 0.1875,0.234375 0.984375,0.984375 1.546875,2.5625 1.546875,4.640625 0,1.71875 -0.359375,3.46875 -1.59375,4.71875 C 0.5625,2.34375 0.5625,2.359375 0.5625,2.390625 0.5625,2.453125 0.609375,2.5 0.671875,2.5 0.765625,2.5 1.671875,1.8125 2.25,0.546875 2.765625,-0.546875 2.875,-1.65625 2.875,-2.5 Z m 0,0"
           id="path8153" />
      </symbol>
    </g>
    <clipPath
       clipPathUnits="userSpaceOnUse"
       id="clipEmfPath1-7">
      <path
         d="M 0,-5.0015748 H 394.12409 V 165.05197 H 0 Z"
         id="path2047" />
    </clipPath>
    <pattern
       id="EMFhbasepattern-0"
       patternUnits="userSpaceOnUse"
       width="6"
       height="6"
       x="0"
       y="0" />
    <clipPath
       clipPathUnits="userSpaceOnUse"
       id="clipEmfPath1-7-5">
      <path
         d="M 0,-5.0015748 H 394.12409 V 165.05197 H 0 Z"
         id="path2047-0" />
    </clipPath>
    <clipPath
       clipPathUnits="userSpaceOnUse"
       id="clipPath1494">
      <path
         d="M 0,-5.0015748 H 394.12409 V 165.05197 H 0 Z"
         id="path1492" />
    </clipPath>
  </defs>
  <sodipodi:namedview
     id="base"
     pagecolor="#ffffff"
     bordercolor="#666666"
     borderopacity="1.0"
     inkscape:pageopacity="0.0"
     inkscape:pageshadow="2"
     inkscape:zoom="2.8"
     inkscape:cx="53.842556"
     inkscape:cy="141.38816"
     inkscape:document-units="mm"
     inkscape:current-layer="g1241"
     inkscape:document-rotation="0"
     showgrid="false"
     inkscape:window-width="1920"
     inkscape:window-height="1017"
     inkscape:window-x="-8"
     inkscape:window-y="-8"
     inkscape:window-maximized="1"
     units="cm" />
  <metadata
     id="metadata5">
    <rdf:RDF>
      <cc:Work
         rdf:about="">
        <dc:format>image/svg+xml</dc:format>
        <dc:type
           rdf:resource="http://purl.org/dc/dcmitype/StillImage" />
        <dc:title></dc:title>
      </cc:Work>
    </rdf:RDF>
  </metadata>
  <g
     inkscape:label="图层 1"
     inkscape:groupmode="layer"
     id="layer1"
     transform="translate(-17.028646,-46.900291)">
    <g
       inkscape:label=""
       transform="translate(20.091143,95.9575)"
       id="g1241">
      <path
         style="fill:#ffffff;fill-opacity:1;fill-rule:evenodd;stroke:none;stroke-width:0.264583"
         d="m 23.287033,-48.924875 v 10.719 h 28.120835 v -10.719 z"
         id="path2053" />
      <path
         style="fill:none;stroke:#000000;stroke-width:0.264668px;stroke-linecap:round;stroke-linejoin:round;stroke-miterlimit:4;stroke-dasharray:none;stroke-opacity:1"
         d="m 23.287033,-38.205875 h 28.120835 v -10.719 H 23.287033 Z"
         id="path2055" />
      <text
         xml:space="preserve"
         style="font-style:normal;font-variant:normal;font-weight:normal;font-stretch:normal;font-size:3.43958px;line-height:125%;font-family:'宋体';-inkscape-font-specification:'宋体';text-align:start;letter-spacing:0px;word-spacing:0px;text-anchor:start;fill:#000000;fill-opacity:1;stroke:none;stroke-width:0.264583"
         x="33.940376"
         y="-42.278732"
         id="text2061"><tspan
           sodipodi:role="line"
           x="33.940376"
           y="-42.278732"
           id="tspan2059"
           style="font-style:normal;font-variant:normal;font-weight:normal;font-stretch:normal;font-family:'宋体';-inkscape-font-specification:'宋体';stroke-width:0.264583">量化<tspan
   style="font-style:normal;font-variant:normal;font-weight:normal;font-stretch:normal;font-size:3.43958px;font-family:'宋体';-inkscape-font-specification:'宋体';fill:#000000;stroke-width:0.264583"
   id="tspan2057" /></tspan></text>
      <path
         style="fill:#ffffff;fill-opacity:1;fill-rule:evenodd;stroke:none;stroke-width:0.264583"
         d="m 66.411158,-48.924875 v 10.719 H 94.53199 v -10.719 z"
         id="path2063" />
      <path
         style="fill:none;stroke:#000000;stroke-width:0.264668px;stroke-linecap:round;stroke-linejoin:round;stroke-miterlimit:4;stroke-dasharray:none;stroke-opacity:1"
         d="M 66.411158,-38.205875 H 94.53199 v -10.719 H 66.411158 Z"
         id="path2065" />
      <text
         xml:space="preserve"
         style="font-style:normal;font-variant:normal;font-weight:normal;font-stretch:normal;font-size:3.43958px;line-height:125%;font-family:'宋体';-inkscape-font-specification:'宋体';text-align:start;letter-spacing:0px;word-spacing:0px;text-anchor:start;fill:#000000;fill-opacity:1;stroke:none;stroke-width:0.264583"
         x="75.301064"
         y="-42.278732"
         id="text2071"><tspan
           sodipodi:role="line"
           x="75.301064"
           y="-42.278732"
           id="tspan2069"
           style="font-style:normal;font-variant:normal;font-weight:normal;font-stretch:normal;font-family:'宋体';-inkscape-font-specification:'宋体';stroke-width:0.264583"><tspan
             dx="0"
             dy="0"
             style="font-style:normal;font-variant:normal;font-weight:normal;font-stretch:normal;font-size:3.43958px;font-family:'宋体';-inkscape-font-specification:'宋体';fill:#000000;stroke-width:0.264583"
             id="tspan2067">熵编码</tspan></tspan></text>
      <path
         style="fill:#ffffff;fill-opacity:1;fill-rule:evenodd;stroke:none;stroke-width:0.264583"
         d="M 23.287033,-16.883669 V -6.1481236 H 51.407868 V -16.883669 Z"
         id="path2073" />
      <path
         style="fill:none;stroke:#000000;stroke-width:1.00031px;stroke-linecap:round;stroke-linejoin:round;stroke-miterlimit:4;stroke-dasharray:none;stroke-opacity:1"
         clip-path="url(#clipEmfPath1-7-5)"
         d="M 91.091181,163.2389 H 197.37465 V 122.66362 H 91.091181 Z"
         id="path2075"
         transform="matrix(0.26458333,0,0,0.26458333,-0.81417596,-49.338419)" />
      <text
         xml:space="preserve"
         style="font-style:normal;font-variant:normal;font-weight:normal;font-stretch:normal;font-size:3.43958px;line-height:125%;font-family:'宋体';-inkscape-font-specification:'宋体';text-align:start;letter-spacing:0px;word-spacing:0px;text-anchor:start;fill:#000000;fill-opacity:1;stroke:none;stroke-width:0.264583"
         x="33.45013"
         y="-10.224209"
         id="text2087"><tspan
           sodipodi:role="line"
           x="0"
           y="0"
           id="tspan2085"
           style="font-style:normal;font-variant:normal;font-weight:normal;font-stretch:normal;font-family:'宋体';-inkscape-font-specification:'宋体';stroke-width:0.264583"><tspan
             style="font-style:normal;font-variant:normal;font-weight:normal;font-stretch:normal;font-size:3.43958px;font-family:'宋体';-inkscape-font-specification:'宋体';fill:#000000;stroke-width:0.264583"
             id="tspan2083" /></tspan></text>
      <text
         xml:space="preserve"
         style="font-style:normal;font-variant:normal;font-weight:normal;font-stretch:normal;font-size:3.43958px;line-height:125%;font-family:'宋体';-inkscape-font-specification:'宋体';text-align:start;letter-spacing:0px;word-spacing:0px;text-anchor:start;fill:#000000;fill-opacity:1;stroke:none;stroke-width:0.264583"
         x="26.168816"
         y="-10.279798"
         id="text2093"><tspan
           sodipodi:role="line"
           x="26.168816"
           y="-10.279798"
           id="tspan2091"
           style="font-style:normal;font-variant:normal;font-weight:normal;font-stretch:normal;font-family:'宋体';-inkscape-font-specification:'宋体';stroke-width:0.264583"><tspan
             dx="0 0 0 0"
             dy="0 0 0 0"
             style="font-style:normal;font-variant:normal;font-weight:normal;font-stretch:normal;font-size:3.43958px;font-family:'宋体';-inkscape-font-specification:'宋体';fill:#000000;stroke-width:0.264583"
             id="tspan2089">帧内/帧间预测</tspan></tspan></text>
      <path
         style="fill:#ffffff;fill-opacity:1;fill-rule:evenodd;stroke:none;stroke-width:0.264583"
         d="m 8.664199,-43.565376 c 0,-1.505291 1.224084,-2.729375 2.729376,-2.729375 1.505291,0 2.729375,1.224084 2.729375,2.729375 0,1.505292 -1.224084,2.729375 -2.729375,2.729375 -1.505292,0 -2.729376,-1.224083 -2.729376,-2.729375 z"
         id="path2095" />
      <path
         style="fill:none;stroke:#000000;stroke-width:0.264668px;stroke-linecap:round;stroke-linejoin:round;stroke-miterlimit:4;stroke-dasharray:none;stroke-opacity:1"
         d="m 8.664199,-43.565376 c 0,-1.505291 1.224084,-2.729375 2.729376,-2.729375 1.505291,0 2.729375,1.224084 2.729375,2.729375 0,1.505292 -1.224084,2.729375 -2.729375,2.729375 -1.505292,0 -2.729376,-1.224083 -2.729376,-2.729375"
         id="path2097" />
      <path
         style="fill:#ffffff;fill-opacity:1;fill-rule:evenodd;stroke:none;stroke-width:0.264583"
         d="m 55.940283,-24.608625 c 0,-1.505292 1.224085,-2.729375 2.729376,-2.729375 1.521833,0 2.745917,1.224083 2.745917,2.729375 0,1.505291 -1.224084,2.729376 -2.745917,2.729376 -1.505291,0 -2.729376,-1.224085 -2.729376,-2.729376 z"
         id="path2099" />
      <path
         style="fill:none;stroke:#000000;stroke-width:0.264668px;stroke-linecap:round;stroke-linejoin:round;stroke-miterlimit:4;stroke-dasharray:none;stroke-opacity:1"
         d="m 55.940283,-24.608625 c 0,-1.505292 1.224085,-2.729375 2.729376,-2.729375 1.521833,0 2.745917,1.224083 2.745917,2.729375 0,1.505291 -1.224084,2.729376 -2.745917,2.729376 -1.505291,0 -2.729376,-1.224085 -2.729376,-2.729376"
         id="path2101" />
      <path
         style="fill:none;stroke:#000000;stroke-width:0.0827082px;stroke-linecap:round;stroke-linejoin:round;stroke-miterlimit:4;stroke-dasharray:none;stroke-opacity:1"
         d="M 51.407868,-43.565376 H 64.707366"
         id="path2103" />
      <path
         style="fill:#000000;fill-opacity:1;fill-rule:evenodd;stroke:none;stroke-width:0.264583"
         d="m 64.459242,-44.541335 1.951916,0.975959 -1.951916,0.975958 z"
         id="path2105" />
      <path
         style="fill:none;stroke:#000000;stroke-width:0.0827082px;stroke-linecap:round;stroke-linejoin:round;stroke-miterlimit:4;stroke-dasharray:none;stroke-opacity:1"
         d="m 94.53199,-43.565376 6.96404,-0.08271"
         id="path2107" />
      <path
         style="fill:#000000;fill-opacity:1;fill-rule:evenodd;stroke:none;stroke-width:0.264583"
         d="m 101.24791,-44.624042 1.95192,0.959417 -1.93538,0.992499 z"
         id="path2109" />
      <path
         style="fill:none;stroke:#000000;stroke-width:0.0827082px;stroke-linecap:round;stroke-linejoin:round;stroke-miterlimit:4;stroke-dasharray:none;stroke-opacity:1"
         d="m 14.12295,-43.565376 h 7.460291"
         id="path2111" />
      <path
         style="fill:#000000;fill-opacity:1;fill-rule:evenodd;stroke:none;stroke-width:0.264583"
         d="m 21.335116,-44.541335 1.951917,0.975959 -1.951917,0.975958 z"
         id="path2113" />
      <path
         style="fill:none;stroke:#000000;stroke-width:0.0827082px;stroke-linecap:round;stroke-linejoin:round;stroke-miterlimit:4;stroke-dasharray:none;stroke-opacity:1"
         d="m 51.407868,-43.565376 h 7.261791 v 14.523584"
         id="path2115" />
      <path
         style="fill:#000000;fill-opacity:1;fill-rule:evenodd;stroke:none;stroke-width:0.264583"
         d="M 59.645617,-29.289917 58.669659,-27.338 57.693701,-29.289917 Z"
         id="path2117" />
      <path
         style="fill:#ffffff;fill-opacity:1;fill-rule:evenodd;stroke:none;stroke-width:0.264583"
         d="m 60.406532,-31.489959 v 4.234667 h 2.001544 v -4.234667 z"
         id="path2119" />
      <text
         xml:space="preserve"
         style="font-style:normal;font-variant:normal;font-weight:normal;font-stretch:normal;font-size:3.43958px;line-height:125%;font-family:'宋体';-inkscape-font-specification:'宋体';text-align:start;letter-spacing:0px;word-spacing:0px;text-anchor:start;fill:#000000;fill-opacity:1;stroke:none;stroke-width:0.264583"
         x="60.537594"
         y="-28.196451"
         id="text2125"><tspan
           sodipodi:role="line"
           x="60.537594"
           y="-28.196451"
           id="tspan2123"
           style="font-style:normal;font-variant:normal;font-weight:normal;font-stretch:normal;font-family:'宋体';-inkscape-font-specification:'宋体';stroke-width:0.264583"><tspan
             dx="0"
             dy="0"
             style="font-style:normal;font-variant:normal;font-weight:normal;font-stretch:normal;font-size:3.43958px;font-family:'宋体';-inkscape-font-specification:'宋体';fill:#000000;stroke-width:0.264583"
             id="tspan2121">+</tspan></tspan></text>
      <path
         style="fill:none;stroke:#000000;stroke-width:0.0827082px;stroke-linecap:round;stroke-linejoin:round;stroke-miterlimit:4;stroke-dasharray:none;stroke-opacity:1"
         d="m 58.669659,-21.879249 v 10.371625 h -5.558002"
         id="path2127" />
      <path
         style="fill:#000000;fill-opacity:1;fill-rule:evenodd;stroke:none;stroke-width:0.264583"
         d="m 53.343242,-10.531666 -1.935374,-0.975958 1.935374,-0.975958 z"
         id="path2129" />
      <path
         style="fill:none;stroke:#000000;stroke-width:0.0827082px;stroke-linecap:round;stroke-linejoin:round;stroke-miterlimit:4;stroke-dasharray:none;stroke-opacity:1"
         d="M 23.287033,-11.507624 H 11.393575 v -27.624585"
         id="path2131" />
      <path
         style="fill:#000000;fill-opacity:1;fill-rule:evenodd;stroke:none;stroke-width:0.264583"
         d="m 10.417616,-38.884084 0.975959,-1.951917 0.975958,1.951917 z"
         id="path2133" />
      <path
         style="fill:#ffffff;fill-opacity:1;fill-rule:evenodd;stroke:none;stroke-width:0.264583"
         d="m 13.312408,-38.999875 v 4.234666 h 1.174458 v -4.234666 z"
         id="path2135" />
      <text
         xml:space="preserve"
         style="font-style:normal;font-variant:normal;font-weight:normal;font-stretch:normal;font-size:3.43958px;line-height:125%;font-family:'宋体';-inkscape-font-specification:'宋体';text-align:start;letter-spacing:0px;word-spacing:0px;text-anchor:start;fill:#000000;fill-opacity:1;stroke:none;stroke-width:0.264583"
         x="13.430097"
         y="-35.698799"
         id="text2141"><tspan
           sodipodi:role="line"
           x="13.430097"
           y="-35.698799"
           id="tspan2139"
           style="font-style:normal;font-variant:normal;font-weight:normal;font-stretch:normal;font-family:'宋体';-inkscape-font-specification:'宋体';stroke-width:0.264583"><tspan
             dx="0"
             dy="0"
             style="font-style:normal;font-variant:normal;font-weight:normal;font-stretch:normal;font-size:3.43958px;font-family:'宋体';-inkscape-font-specification:'宋体';fill:#000000;stroke-width:0.264583"
             id="tspan2137">-</tspan></tspan></text>
      <path
         style="fill:none;stroke:#000000;stroke-width:0.0827082px;stroke-linecap:round;stroke-linejoin:round;stroke-miterlimit:4;stroke-dasharray:none;stroke-opacity:1"
         d="M 23.287033,-11.507624 H 11.393575 v -13.101001 h 42.842916"
         id="path2143" />
      <path
         style="fill:#000000;fill-opacity:1;fill-rule:evenodd;stroke:none;stroke-width:0.264583"
         d="m 53.988368,-25.584584 1.951915,0.975959 -1.951915,0.975958 z"
         id="path2145" />
      <path
         style="fill:#ffffff;fill-opacity:1;fill-rule:evenodd;stroke:none;stroke-width:0.264583"
         d="m 53.905659,-22.987542 v 4.234668 H 55.9072 v -4.234668 z"
         id="path2147" />
      <text
         xml:space="preserve"
         style="font-style:normal;font-variant:normal;font-weight:normal;font-stretch:normal;font-size:3.43958px;line-height:125%;font-family:'宋体';-inkscape-font-specification:'宋体';text-align:start;letter-spacing:0px;word-spacing:0px;text-anchor:start;fill:#000000;fill-opacity:1;stroke:none;stroke-width:0.264583"
         x="54.035542"
         y="-19.693773"
         id="text2153"><tspan
           sodipodi:role="line"
           x="54.035542"
           y="-19.693773"
           id="tspan2151"
           style="font-style:normal;font-variant:normal;font-weight:normal;font-stretch:normal;font-family:'宋体';-inkscape-font-specification:'宋体';stroke-width:0.264583"><tspan
             dx="0"
             dy="0"
             style="font-style:normal;font-variant:normal;font-weight:normal;font-stretch:normal;font-size:3.43958px;font-family:'宋体';-inkscape-font-specification:'宋体';fill:#000000;stroke-width:0.264583"
             id="tspan2149">+</tspan></tspan></text>
      <path
         style="fill:none;stroke:#000000;stroke-width:0.312598px;stroke-linecap:round;stroke-linejoin:round;stroke-miterlimit:4;stroke-dasharray:none;stroke-opacity:1"
         clip-path="url(#clipEmfPath1-7-5)"
         d="M 1.187874,21.81937 H 29.384252"
         id="path2155"
         transform="matrix(0.26458333,0,0,0.26458333,-0.81417596,-49.338419)" />
      <path
         style="fill:#000000;fill-opacity:1;fill-rule:evenodd;stroke:none;stroke-width:0.264583"
         d="m 6.712282,-44.541335 1.951917,0.975959 -1.951917,0.975958 z"
         id="path2157" />
      <text
         xml:space="preserve"
         style="font-style:normal;font-variant:normal;font-weight:normal;font-stretch:normal;font-size:3.43958px;line-height:125%;font-family:'宋体';-inkscape-font-specification:'宋体';text-align:start;letter-spacing:0px;word-spacing:0px;text-anchor:start;fill:#000000;fill-opacity:1;stroke:none;stroke-width:0.264583"
         x="6.8600016"
         y="-46.237877"
         id="text2163"><tspan
           sodipodi:role="line"
           x="6.8600016"
           y="-46.237877"
           id="tspan2161"
           style="font-style:normal;font-variant:normal;font-weight:normal;font-stretch:normal;font-family:'宋体';-inkscape-font-specification:'宋体';stroke-width:0.264583"><tspan
             dx="0"
             dy="0"
             style="font-style:normal;font-variant:normal;font-weight:normal;font-stretch:normal;font-size:3.43958px;font-family:'宋体';-inkscape-font-specification:'宋体';fill:#000000;stroke-width:0.264583"
             id="tspan2159">+</tspan></tspan></text>
      <g
         ns1:text="$x(n)$"
         transform="matrix(0.39999999,0,0,0.39999999,-74.540245,-89.384296)"
         id="g591">
        <g
           id="g589">
          <g
             style="fill:#000000;fill-opacity:1"
             id="g575">
            <path
               style="stroke:none"
               d="m 3.5,-3.171875 c 0.0625,-0.25 0.125,-1.015625 0.8125,-1.015625 0.046875,0 0.15625,-0.046875 0.375,0.078125 l 0.125,-0.28125 c -0.28125,0.046875 -0.65625,0.46875 -0.65625,0.71875 0,0.15625 0.296875,0.5 0.5625,0.5 0.21875,0 0.703125,-0.34375 0.703125,-0.734375 0,-0.515625 -0.75,-0.828125 -1.09375,-0.828125 -0.578125,0 -1.0625,0.578125 -1.03125,0.53125 C 3.203125,-4.46875 2.5,-4.734375 2.203125,-4.734375 c -1.03125,0 -1.78125,1.453125 -1.78125,1.703125 0,0.09375 0.28125,0.265625 0.296875,0.265625 0.078125,0 0.28125,-0.1875 0.296875,-0.28125 C 1.359375,-4.09375 1.84375,-4.1875 2.1875,-4.1875 2.375,-4.1875 2.546875,-4.25 2.546875,-3.671875 2.546875,-3.375 2.375,-2.703125 2,-1.3125 c -0.15625,0.625 -0.328125,0.875 -0.765625,0.875 -0.0625,0 -0.171875,0.046875 -0.375,-0.078125 l -0.125,0.28125 C 0.984375,-0.296875 1.375,-0.65625 1.375,-0.9375 c 0,-0.265625 -0.390625,-0.515625 -0.53125,-0.515625 -0.3125,0 -0.734375,0.421875 -0.734375,0.75 0,0.453125 0.671875,0.8125 1.109375,0.8125 0.671875,0 1.140625,-0.75 1.171875,-0.8125 L 2.09375,-0.8125 c 0.125,0.375 0.65625,0.921875 1.25,0.921875 1.03125,0 1.765625,-1.4375 1.765625,-1.6875 0,-0.109375 -0.25,-0.28125 -0.28125,-0.28125 -0.09375,0 -0.296875,0.21875 -0.3125,0.28125 C 4.1875,-0.515625 3.6875,-0.4375 3.375,-0.4375 c -0.390625,0 -0.390625,-0.15625 -0.390625,-0.484375 0,-0.21875 0.0625,-0.4375 0.171875,-0.875 z m 0,0"
               transform="translate(178.585,110.99)"
               id="path573" />
          </g>
          <g
             style="fill:#000000;fill-opacity:1"
             id="g579">
            <path
               style="stroke:none"
               d="M 3.46875,2.234375 C 3.46875,2.203125 3.421875,2.0625 3.25,1.890625 2,0.640625 1.734375,-1.125 1.734375,-2.65625 c 0,-1.734375 0.328125,-3.359375 1.5625,-4.59375 0.125,-0.125 0.171875,-0.25 0.171875,-0.28125 0,-0.078125 -0.203125,-0.28125 -0.265625,-0.28125 -0.109375,0 -1.171875,0.859375 -1.765625,2.125 -0.515625,1.09375 -0.625,2.203125 -0.625,3.03125 0,0.78125 0.109375,1.984375 0.65625,3.109375 C 2.0625,1.6875 3.09375,2.5 3.203125,2.5 3.265625,2.5 3.46875,2.296875 3.46875,2.234375 Z m 0,0"
               transform="translate(184.278,110.99)"
               id="path577" />
          </g>
          <g
             style="fill:#000000;fill-opacity:1"
             id="g583">
            <path
               style="stroke:none"
               d="m 0.703125,-0.75 c -0.03125,0.15625 -0.09375,0.375 -0.09375,0.4375 0,0.171875 0.3125,0.421875 0.46875,0.421875 0.125,0 0.46875,-0.234375 0.515625,-0.390625 C 1.578125,-0.234375 1.75,-0.8125 1.796875,-1.0625 L 2.03125,-1.96875 C 2.078125,-2.1875 2.140625,-2.40625 2.1875,-2.625 c 0.046875,-0.171875 0.125,-0.46875 0.140625,-0.5 0.140625,-0.3125 0.5,-1.0625 1.453125,-1.0625 0.453125,0 0.359375,0.203125 0.359375,0.53125 0,0.625 -0.484375,1.90625 -0.65625,2.328125 -0.078125,0.234375 -0.09375,0.34375 -0.09375,0.453125 0,0.46875 0.53125,0.984375 1,0.984375 0.9375,0 1.46875,-1.609375 1.46875,-1.6875 0,-0.109375 -0.25,-0.28125 -0.28125,-0.28125 -0.109375,0 -0.28125,0.203125 -0.328125,0.359375 -0.203125,0.671875 -0.359375,1.0625 -0.84375,1.0625 -0.171875,0 -0.0625,0.0625 -0.0625,-0.15625 0,-0.25 0.078125,-0.5 0.171875,-0.71875 C 4.703125,-1.828125 5.125,-2.9375 5.125,-3.5 c 0,-0.671875 -0.59375,-1.234375 -1.3125,-1.234375 -0.90625,0 -1.515625,0.6875 -1.6875,0.921875 l 0.296875,0.109375 C 2.375,-4.25 1.796875,-4.734375 1.328125,-4.734375 c -0.453125,0 -0.765625,0.4375 -0.84375,0.5625 -0.234375,0.515625 -0.375,1.09375 -0.375,1.140625 0,0.09375 0.28125,0.265625 0.296875,0.265625 0.109375,0 0.28125,-0.171875 0.34375,-0.390625 0.171875,-0.71875 0.203125,-1.03125 0.5625,-1.03125 0.1875,0 0.125,-0.03125 0.125,0.296875 0,0.21875 -0.03125,0.328125 -0.15625,0.84375 z m 0,0"
               transform="translate(188.153,110.99)"
               id="path581" />
          </g>
          <g
             style="fill:#000000;fill-opacity:1"
             id="g587">
            <path
               style="stroke:none"
               d="m 3.046875,-2.65625 c 0,-0.765625 -0.109375,-1.984375 -0.65625,-3.109375 -0.59375,-1.21875 -1.625,-2.046875 -1.71875,-2.046875 -0.0625,0 -0.28125,0.21875 -0.28125,0.28125 0,0.03125 0.046875,0.15625 0.234375,0.328125 0.984375,1 1.5,2.46875 1.5,4.546875 0,1.703125 -0.328125,3.34375 -1.5625,4.59375 -0.125,0.125 -0.171875,0.265625 -0.171875,0.296875 0,0.0625 0.21875,0.265625 0.28125,0.265625 0.09375,0 1.15625,-0.84375 1.75,-2.109375 0.515625,-1.09375 0.625,-2.203125 0.625,-3.046875 z m 0,0"
               transform="translate(194.133,110.99)"
               id="path585" />
          </g>
        </g>
      </g>
      <g
         ns1:text="$p(n)$"
         transform="matrix(0.39999999,0,0,0.39999999,-68.263905,-67.942129)"
         id="g902">
        <g
           id="g900">
          <g
             style="fill:#000000;fill-opacity:1"
             id="g886">
            <path
               style="stroke:none"
               d="M 0.265625,1.0625 C 0.1875,1.390625 0.34375,1.296875 -0.09375,1.296875 -0.203125,1.296875 -0.5,1.46875 -0.5,1.65625 c 0,0.078125 0.234375,0.28125 0.3125,0.28125 0.265625,0 0.5625,-0.03125 0.828125,-0.03125 0.34375,0 0.671875,0.03125 1,0.03125 0.046875,0 0.34375,-0.15625 0.34375,-0.359375 0,-0.109375 -0.265625,-0.28125 -0.40625,-0.28125 -0.5,0 -0.328125,0.09375 -0.328125,0.015625 0,-0.125 0.421875,-1.75 0.484375,-2 h -0.34375 c 0.125,0.28125 0.578125,0.796875 1.09375,0.796875 1.15625,0 2.5625,-1.609375 2.5625,-3.078125 0,-0.9375 -0.734375,-1.765625 -1.484375,-1.765625 -0.5,0 -1.109375,0.40625 -1.203125,0.53125 -0.03125,-0.15625 -0.640625,-0.53125 -1,-0.53125 -0.46875,0 -0.78125,0.4375 -0.875,0.625 C 0.3125,-3.78125 0.125,-3.0625 0.125,-3.03125 c 0,0.09375 0.28125,0.265625 0.296875,0.265625 0.109375,0 0.28125,-0.171875 0.34375,-0.390625 C 0.9375,-3.875 0.96875,-4.1875 1.328125,-4.1875 c 0.171875,0 0.125,-0.078125 0.125,0.296875 0,0.234375 -0.03125,0.34375 -0.0625,0.515625 z M 2.375,-3.265625 c 0.0625,-0.265625 0.28125,-0.4375 0.46875,-0.59375 0.34375,-0.3125 0.515625,-0.328125 0.6875,-0.328125 0.390625,0 0.453125,0.1875 0.453125,0.78125 0,0.578125 -0.328125,1.734375 -0.5,2.109375 C 3.140625,-0.59375 2.84375,-0.4375 2.46875,-0.4375 c -0.65625,0 -0.609375,-0.65625 -0.609375,-0.71875 0,-0.015625 0,-0.046875 0.03125,-0.15625 z m 0,0"
               transform="translate(178.585,110.99)"
               id="path884" />
          </g>
          <g
             style="fill:#000000;fill-opacity:1"
             id="g890">
            <path
               style="stroke:none"
               d="M 3.46875,2.234375 C 3.46875,2.203125 3.421875,2.0625 3.25,1.890625 2,0.640625 1.734375,-1.125 1.734375,-2.65625 c 0,-1.734375 0.328125,-3.359375 1.5625,-4.59375 0.125,-0.125 0.171875,-0.25 0.171875,-0.28125 0,-0.078125 -0.203125,-0.28125 -0.265625,-0.28125 -0.109375,0 -1.171875,0.859375 -1.765625,2.125 -0.515625,1.09375 -0.625,2.203125 -0.625,3.03125 0,0.78125 0.109375,1.984375 0.65625,3.109375 C 2.0625,1.6875 3.09375,2.5 3.203125,2.5 3.265625,2.5 3.46875,2.296875 3.46875,2.234375 Z m 0,0"
               transform="translate(183.597,110.99)"
               id="path888" />
          </g>
          <g
             style="fill:#000000;fill-opacity:1"
             id="g894">
            <path
               style="stroke:none"
               d="m 0.703125,-0.75 c -0.03125,0.15625 -0.09375,0.375 -0.09375,0.4375 0,0.171875 0.3125,0.421875 0.46875,0.421875 0.125,0 0.46875,-0.234375 0.515625,-0.390625 C 1.578125,-0.234375 1.75,-0.8125 1.796875,-1.0625 L 2.03125,-1.96875 C 2.078125,-2.1875 2.140625,-2.40625 2.1875,-2.625 c 0.046875,-0.171875 0.125,-0.46875 0.140625,-0.5 0.140625,-0.3125 0.5,-1.0625 1.453125,-1.0625 0.453125,0 0.359375,0.203125 0.359375,0.53125 0,0.625 -0.484375,1.90625 -0.65625,2.328125 -0.078125,0.234375 -0.09375,0.34375 -0.09375,0.453125 0,0.46875 0.53125,0.984375 1,0.984375 0.9375,0 1.46875,-1.609375 1.46875,-1.6875 0,-0.109375 -0.25,-0.28125 -0.28125,-0.28125 -0.109375,0 -0.28125,0.203125 -0.328125,0.359375 -0.203125,0.671875 -0.359375,1.0625 -0.84375,1.0625 -0.171875,0 -0.0625,0.0625 -0.0625,-0.15625 0,-0.25 0.078125,-0.5 0.171875,-0.71875 C 4.703125,-1.828125 5.125,-2.9375 5.125,-3.5 c 0,-0.671875 -0.59375,-1.234375 -1.3125,-1.234375 -0.90625,0 -1.515625,0.6875 -1.6875,0.921875 l 0.296875,0.109375 C 2.375,-4.25 1.796875,-4.734375 1.328125,-4.734375 c -0.453125,0 -0.765625,0.4375 -0.84375,0.5625 -0.234375,0.515625 -0.375,1.09375 -0.375,1.140625 0,0.09375 0.28125,0.265625 0.296875,0.265625 0.109375,0 0.28125,-0.171875 0.34375,-0.390625 0.171875,-0.71875 0.203125,-1.03125 0.5625,-1.03125 0.1875,0 0.125,-0.03125 0.125,0.296875 0,0.21875 -0.03125,0.328125 -0.15625,0.84375 z m 0,0"
               transform="translate(187.471,110.99)"
               id="path892" />
          </g>
          <g
             style="fill:#000000;fill-opacity:1"
             id="g898">
            <path
               style="stroke:none"
               d="m 3.046875,-2.65625 c 0,-0.765625 -0.109375,-1.984375 -0.65625,-3.109375 -0.59375,-1.21875 -1.625,-2.046875 -1.71875,-2.046875 -0.0625,0 -0.28125,0.21875 -0.28125,0.28125 0,0.03125 0.046875,0.15625 0.234375,0.328125 0.984375,1 1.5,2.46875 1.5,4.546875 0,1.703125 -0.328125,3.34375 -1.5625,4.59375 -0.125,0.125 -0.171875,0.265625 -0.171875,0.296875 0,0.0625 0.21875,0.265625 0.28125,0.265625 0.09375,0 1.15625,-0.84375 1.75,-2.109375 0.515625,-1.09375 0.625,-2.203125 0.625,-3.046875 z m 0,0"
               transform="translate(193.451,110.99)"
               id="path896" />
          </g>
        </g>
      </g>
      <g
         ns1:text="$x^{'}(n)$"
         transform="matrix(0.39999999,0,0,0.39999999,-12.112259,-54.684879)"
         id="g1077">
        <g
           id="g1075">
          <g
             style="fill:#000000;fill-opacity:1"
             id="g1057">
            <path
               style="stroke:none"
               d="m 3.5,-3.171875 c 0.0625,-0.25 0.125,-1.015625 0.8125,-1.015625 0.046875,0 0.15625,-0.046875 0.375,0.078125 l 0.125,-0.28125 c -0.28125,0.046875 -0.65625,0.46875 -0.65625,0.71875 0,0.15625 0.296875,0.5 0.5625,0.5 0.21875,0 0.703125,-0.34375 0.703125,-0.734375 0,-0.515625 -0.75,-0.828125 -1.09375,-0.828125 -0.578125,0 -1.0625,0.578125 -1.03125,0.53125 C 3.203125,-4.46875 2.5,-4.734375 2.203125,-4.734375 c -1.03125,0 -1.78125,1.453125 -1.78125,1.703125 0,0.09375 0.28125,0.265625 0.296875,0.265625 0.078125,0 0.28125,-0.1875 0.296875,-0.28125 C 1.359375,-4.09375 1.84375,-4.1875 2.1875,-4.1875 2.375,-4.1875 2.546875,-4.25 2.546875,-3.671875 2.546875,-3.375 2.375,-2.703125 2,-1.3125 c -0.15625,0.625 -0.328125,0.875 -0.765625,0.875 -0.0625,0 -0.171875,0.046875 -0.375,-0.078125 l -0.125,0.28125 C 0.984375,-0.296875 1.375,-0.65625 1.375,-0.9375 c 0,-0.265625 -0.390625,-0.515625 -0.53125,-0.515625 -0.3125,0 -0.734375,0.421875 -0.734375,0.75 0,0.453125 0.671875,0.8125 1.109375,0.8125 0.671875,0 1.140625,-0.75 1.171875,-0.8125 L 2.09375,-0.8125 c 0.125,0.375 0.65625,0.921875 1.25,0.921875 1.03125,0 1.765625,-1.4375 1.765625,-1.6875 0,-0.109375 -0.25,-0.28125 -0.28125,-0.28125 -0.09375,0 -0.296875,0.21875 -0.3125,0.28125 C 4.1875,-0.515625 3.6875,-0.4375 3.375,-0.4375 c -0.390625,0 -0.390625,-0.15625 -0.390625,-0.484375 0,-0.21875 0.0625,-0.4375 0.171875,-0.875 z m 0,0"
               transform="translate(178.585,110.99)"
               id="path1055" />
          </g>
          <g
             style="fill:#000000;fill-opacity:1"
             id="g1061">
            <path
               style="stroke:none"
               d="m 1.9375,-2.375 c 0,0 0.109375,-0.234375 0.109375,-0.3125 0,-0.171875 -0.359375,-0.484375 -0.515625,-0.484375 -0.203125,0 -0.453125,0.34375 -0.484375,0.421875 L 0.28125,-0.59375 c -0.015625,0.0625 -0.015625,0.078125 -0.015625,0.078125 0,0.09375 0.40625,0.328125 0.40625,0.328125 0.046875,0 0.203125,-0.078125 0.234375,-0.140625 z m 0,0"
               transform="translate(184.278,104.369)"
               id="path1059" />
          </g>
          <g
             style="fill:#000000;fill-opacity:1"
             id="g1065">
            <path
               style="stroke:none"
               d="M 3.46875,2.234375 C 3.46875,2.203125 3.421875,2.0625 3.25,1.890625 2,0.640625 1.734375,-1.125 1.734375,-2.65625 c 0,-1.734375 0.328125,-3.359375 1.5625,-4.59375 0.125,-0.125 0.171875,-0.25 0.171875,-0.28125 0,-0.078125 -0.203125,-0.28125 -0.265625,-0.28125 -0.109375,0 -1.171875,0.859375 -1.765625,2.125 -0.515625,1.09375 -0.625,2.203125 -0.625,3.03125 0,0.78125 0.109375,1.984375 0.65625,3.109375 C 2.0625,1.6875 3.09375,2.5 3.203125,2.5 3.265625,2.5 3.46875,2.296875 3.46875,2.234375 Z m 0,0"
               transform="translate(187.471,110.99)"
               id="path1063" />
          </g>
          <g
             style="fill:#000000;fill-opacity:1"
             id="g1069">
            <path
               style="stroke:none"
               d="m 0.703125,-0.75 c -0.03125,0.15625 -0.09375,0.375 -0.09375,0.4375 0,0.171875 0.3125,0.421875 0.46875,0.421875 0.125,0 0.46875,-0.234375 0.515625,-0.390625 C 1.578125,-0.234375 1.75,-0.8125 1.796875,-1.0625 L 2.03125,-1.96875 C 2.078125,-2.1875 2.140625,-2.40625 2.1875,-2.625 c 0.046875,-0.171875 0.125,-0.46875 0.140625,-0.5 0.140625,-0.3125 0.5,-1.0625 1.453125,-1.0625 0.453125,0 0.359375,0.203125 0.359375,0.53125 0,0.625 -0.484375,1.90625 -0.65625,2.328125 -0.078125,0.234375 -0.09375,0.34375 -0.09375,0.453125 0,0.46875 0.53125,0.984375 1,0.984375 0.9375,0 1.46875,-1.609375 1.46875,-1.6875 0,-0.109375 -0.25,-0.28125 -0.28125,-0.28125 -0.109375,0 -0.28125,0.203125 -0.328125,0.359375 -0.203125,0.671875 -0.359375,1.0625 -0.84375,1.0625 -0.171875,0 -0.0625,0.0625 -0.0625,-0.15625 0,-0.25 0.078125,-0.5 0.171875,-0.71875 C 4.703125,-1.828125 5.125,-2.9375 5.125,-3.5 c 0,-0.671875 -0.59375,-1.234375 -1.3125,-1.234375 -0.90625,0 -1.515625,0.6875 -1.6875,0.921875 l 0.296875,0.109375 C 2.375,-4.25 1.796875,-4.734375 1.328125,-4.734375 c -0.453125,0 -0.765625,0.4375 -0.84375,0.5625 -0.234375,0.515625 -0.375,1.09375 -0.375,1.140625 0,0.09375 0.28125,0.265625 0.296875,0.265625 0.109375,0 0.28125,-0.171875 0.34375,-0.390625 0.171875,-0.71875 0.203125,-1.03125 0.5625,-1.03125 0.1875,0 0.125,-0.03125 0.125,0.296875 0,0.21875 -0.03125,0.328125 -0.15625,0.84375 z m 0,0"
               transform="translate(191.346,110.99)"
               id="path1067" />
          </g>
          <g
             style="fill:#000000;fill-opacity:1"
             id="g1073">
            <path
               style="stroke:none"
               d="m 3.046875,-2.65625 c 0,-0.765625 -0.109375,-1.984375 -0.65625,-3.109375 -0.59375,-1.21875 -1.625,-2.046875 -1.71875,-2.046875 -0.0625,0 -0.28125,0.21875 -0.28125,0.28125 0,0.03125 0.046875,0.15625 0.234375,0.328125 0.984375,1 1.5,2.46875 1.5,4.546875 0,1.703125 -0.328125,3.34375 -1.5625,4.59375 -0.125,0.125 -0.171875,0.265625 -0.171875,0.296875 0,0.0625 0.21875,0.265625 0.28125,0.265625 0.09375,0 1.15625,-0.84375 1.75,-2.109375 0.515625,-1.09375 0.625,-2.203125 0.625,-3.046875 z m 0,0"
               transform="translate(197.326,110.99)"
               id="path1071" />
          </g>
        </g>
      </g>
      <g
         ns1:text="$e^{'}(n)$"
         transform="matrix(0.39999999,0,0,0.39999999,-18.028249,-89.384296)"
         id="g1255">
        <g
           id="surface1">
          <g
             style="fill:#000000;fill-opacity:1"
             id="g1236">
            <path
               style="stroke:none"
               d="m 1.859375,-2.296875 c 0.296875,0 1.03125,-0.03125 1.53125,-0.234375 0.703125,-0.296875 0.921875,-1.046875 0.921875,-1.1875 0,-0.4375 -0.546875,-1.015625 -1.234375,-1.015625 -1.109375,0 -2.796875,1.140625 -2.796875,2.875 0,1.015625 0.765625,1.96875 1.75,1.96875 1.421875,0 2.421875,-1.21875 2.421875,-1.328125 0,-0.0625 -0.21875,-0.3125 -0.28125,-0.3125 -0.0625,0 -0.203125,0.078125 -0.265625,0.15625 -0.78125,0.984375 -1.75,0.9375 -1.859375,0.9375 -0.78125,0 -0.703125,-0.671875 -0.703125,-0.984375 0,-0.125 0.015625,-0.4375 0.125,-0.875 z M 1.5625,-2.6875 c 0.390625,-1.515625 1.25,-1.5 1.515625,-1.5 0.453125,0 0.546875,0.125 0.546875,0.46875 0,1.03125 -1.40625,0.875 -1.828125,0.875 h -0.1875 z m 0,0"
               transform="translate(178.585,110.99)"
               id="path1234" />
          </g>
          <g
             style="fill:#000000;fill-opacity:1"
             id="g1240">
            <path
               style="stroke:none"
               d="m 1.9375,-2.375 c 0,0 0.109375,-0.234375 0.109375,-0.3125 0,-0.171875 -0.359375,-0.484375 -0.515625,-0.484375 -0.203125,0 -0.453125,0.34375 -0.484375,0.421875 L 0.28125,-0.59375 c -0.015625,0.0625 -0.015625,0.078125 -0.015625,0.078125 0,0.09375 0.40625,0.328125 0.40625,0.328125 0.046875,0 0.203125,-0.078125 0.234375,-0.140625 z m 0,0"
               transform="translate(183.223,104.369)"
               id="path1238" />
          </g>
          <g
             style="fill:#000000;fill-opacity:1"
             id="g1244">
            <path
               style="stroke:none"
               d="M 3.46875,2.234375 C 3.46875,2.203125 3.421875,2.0625 3.25,1.890625 2,0.640625 1.734375,-1.125 1.734375,-2.65625 c 0,-1.734375 0.328125,-3.359375 1.5625,-4.59375 0.125,-0.125 0.171875,-0.25 0.171875,-0.28125 0,-0.078125 -0.203125,-0.28125 -0.265625,-0.28125 -0.109375,0 -1.171875,0.859375 -1.765625,2.125 -0.515625,1.09375 -0.625,2.203125 -0.625,3.03125 0,0.78125 0.109375,1.984375 0.65625,3.109375 C 2.0625,1.6875 3.09375,2.5 3.203125,2.5 3.265625,2.5 3.46875,2.296875 3.46875,2.234375 Z m 0,0"
               transform="translate(186.416,110.99)"
               id="path1242" />
          </g>
          <g
             style="fill:#000000;fill-opacity:1"
             id="g1248">
            <path
               style="stroke:none"
               d="m 0.703125,-0.75 c -0.03125,0.15625 -0.09375,0.375 -0.09375,0.4375 0,0.171875 0.3125,0.421875 0.46875,0.421875 0.125,0 0.46875,-0.234375 0.515625,-0.390625 C 1.578125,-0.234375 1.75,-0.8125 1.796875,-1.0625 L 2.03125,-1.96875 C 2.078125,-2.1875 2.140625,-2.40625 2.1875,-2.625 c 0.046875,-0.171875 0.125,-0.46875 0.140625,-0.5 0.140625,-0.3125 0.5,-1.0625 1.453125,-1.0625 0.453125,0 0.359375,0.203125 0.359375,0.53125 0,0.625 -0.484375,1.90625 -0.65625,2.328125 -0.078125,0.234375 -0.09375,0.34375 -0.09375,0.453125 0,0.46875 0.53125,0.984375 1,0.984375 0.9375,0 1.46875,-1.609375 1.46875,-1.6875 0,-0.109375 -0.25,-0.28125 -0.28125,-0.28125 -0.109375,0 -0.28125,0.203125 -0.328125,0.359375 -0.203125,0.671875 -0.359375,1.0625 -0.84375,1.0625 -0.171875,0 -0.0625,0.0625 -0.0625,-0.15625 0,-0.25 0.078125,-0.5 0.171875,-0.71875 C 4.703125,-1.828125 5.125,-2.9375 5.125,-3.5 c 0,-0.671875 -0.59375,-1.234375 -1.3125,-1.234375 -0.90625,0 -1.515625,0.6875 -1.6875,0.921875 l 0.296875,0.109375 C 2.375,-4.25 1.796875,-4.734375 1.328125,-4.734375 c -0.453125,0 -0.765625,0.4375 -0.84375,0.5625 -0.234375,0.515625 -0.375,1.09375 -0.375,1.140625 0,0.09375 0.28125,0.265625 0.296875,0.265625 0.109375,0 0.28125,-0.171875 0.34375,-0.390625 0.171875,-0.71875 0.203125,-1.03125 0.5625,-1.03125 0.1875,0 0.125,-0.03125 0.125,0.296875 0,0.21875 -0.03125,0.328125 -0.15625,0.84375 z m 0,0"
               transform="translate(190.291,110.99)"
               id="path1246" />
          </g>
          <g
             style="fill:#000000;fill-opacity:1"
             id="g1252">
            <path
               style="stroke:none"
               d="m 3.046875,-2.65625 c 0,-0.765625 -0.109375,-1.984375 -0.65625,-3.109375 -0.59375,-1.21875 -1.625,-2.046875 -1.71875,-2.046875 -0.0625,0 -0.28125,0.21875 -0.28125,0.28125 0,0.03125 0.046875,0.15625 0.234375,0.328125 0.984375,1 1.5,2.46875 1.5,4.546875 0,1.703125 -0.328125,3.34375 -1.5625,4.59375 -0.125,0.125 -0.171875,0.265625 -0.171875,0.296875 0,0.0625 0.21875,0.265625 0.28125,0.265625 0.09375,0 1.15625,-0.84375 1.75,-2.109375 0.515625,-1.09375 0.625,-2.203125 0.625,-3.046875 z m 0,0"
               transform="translate(196.271,110.99)"
               id="path1250" />
          </g>
        </g>
      </g>
      <g
         ns1:text="$e(n)$"
         transform="matrix(0.39999999,0,0,0.39999999,-57.119678,-89.384296)"
         id="g1442">
        <g
           id="g1440">
          <g
             style="fill:#000000;fill-opacity:1"
             id="g1426">
            <path
               style="stroke:none"
               d="m 1.859375,-2.296875 c 0.296875,0 1.03125,-0.03125 1.53125,-0.234375 0.703125,-0.296875 0.921875,-1.046875 0.921875,-1.1875 0,-0.4375 -0.546875,-1.015625 -1.234375,-1.015625 -1.109375,0 -2.796875,1.140625 -2.796875,2.875 0,1.015625 0.765625,1.96875 1.75,1.96875 1.421875,0 2.421875,-1.21875 2.421875,-1.328125 0,-0.0625 -0.21875,-0.3125 -0.28125,-0.3125 -0.0625,0 -0.203125,0.078125 -0.265625,0.15625 -0.78125,0.984375 -1.75,0.9375 -1.859375,0.9375 -0.78125,0 -0.703125,-0.671875 -0.703125,-0.984375 0,-0.125 0.015625,-0.4375 0.125,-0.875 z M 1.5625,-2.6875 c 0.390625,-1.515625 1.25,-1.5 1.515625,-1.5 0.453125,0 0.546875,0.125 0.546875,0.46875 0,1.03125 -1.40625,0.875 -1.828125,0.875 h -0.1875 z m 0,0"
               transform="translate(178.585,110.99)"
               id="path1424" />
          </g>
          <g
             style="fill:#000000;fill-opacity:1"
             id="g1430">
            <path
               style="stroke:none"
               d="M 3.46875,2.234375 C 3.46875,2.203125 3.421875,2.0625 3.25,1.890625 2,0.640625 1.734375,-1.125 1.734375,-2.65625 c 0,-1.734375 0.328125,-3.359375 1.5625,-4.59375 0.125,-0.125 0.171875,-0.25 0.171875,-0.28125 0,-0.078125 -0.203125,-0.28125 -0.265625,-0.28125 -0.109375,0 -1.171875,0.859375 -1.765625,2.125 -0.515625,1.09375 -0.625,2.203125 -0.625,3.03125 0,0.78125 0.109375,1.984375 0.65625,3.109375 C 2.0625,1.6875 3.09375,2.5 3.203125,2.5 3.265625,2.5 3.46875,2.296875 3.46875,2.234375 Z m 0,0"
               transform="translate(183.223,110.99)"
               id="path1428" />
          </g>
          <g
             style="fill:#000000;fill-opacity:1"
             id="g1434">
            <path
               style="stroke:none"
               d="m 0.703125,-0.75 c -0.03125,0.15625 -0.09375,0.375 -0.09375,0.4375 0,0.171875 0.3125,0.421875 0.46875,0.421875 0.125,0 0.46875,-0.234375 0.515625,-0.390625 C 1.578125,-0.234375 1.75,-0.8125 1.796875,-1.0625 L 2.03125,-1.96875 C 2.078125,-2.1875 2.140625,-2.40625 2.1875,-2.625 c 0.046875,-0.171875 0.125,-0.46875 0.140625,-0.5 0.140625,-0.3125 0.5,-1.0625 1.453125,-1.0625 0.453125,0 0.359375,0.203125 0.359375,0.53125 0,0.625 -0.484375,1.90625 -0.65625,2.328125 -0.078125,0.234375 -0.09375,0.34375 -0.09375,0.453125 0,0.46875 0.53125,0.984375 1,0.984375 0.9375,0 1.46875,-1.609375 1.46875,-1.6875 0,-0.109375 -0.25,-0.28125 -0.28125,-0.28125 -0.109375,0 -0.28125,0.203125 -0.328125,0.359375 -0.203125,0.671875 -0.359375,1.0625 -0.84375,1.0625 -0.171875,0 -0.0625,0.0625 -0.0625,-0.15625 0,-0.25 0.078125,-0.5 0.171875,-0.71875 C 4.703125,-1.828125 5.125,-2.9375 5.125,-3.5 c 0,-0.671875 -0.59375,-1.234375 -1.3125,-1.234375 -0.90625,0 -1.515625,0.6875 -1.6875,0.921875 l 0.296875,0.109375 C 2.375,-4.25 1.796875,-4.734375 1.328125,-4.734375 c -0.453125,0 -0.765625,0.4375 -0.84375,0.5625 -0.234375,0.515625 -0.375,1.09375 -0.375,1.140625 0,0.09375 0.28125,0.265625 0.296875,0.265625 0.109375,0 0.28125,-0.171875 0.34375,-0.390625 0.171875,-0.71875 0.203125,-1.03125 0.5625,-1.03125 0.1875,0 0.125,-0.03125 0.125,0.296875 0,0.21875 -0.03125,0.328125 -0.15625,0.84375 z m 0,0"
               transform="translate(187.098,110.99)"
               id="path1432" />
          </g>
          <g
             style="fill:#000000;fill-opacity:1"
             id="g1438">
            <path
               style="stroke:none"
               d="m 3.046875,-2.65625 c 0,-0.765625 -0.109375,-1.984375 -0.65625,-3.109375 -0.59375,-1.21875 -1.625,-2.046875 -1.71875,-2.046875 -0.0625,0 -0.28125,0.21875 -0.28125,0.28125 0,0.03125 0.046875,0.15625 0.234375,0.328125 0.984375,1 1.5,2.46875 1.5,4.546875 0,1.703125 -0.328125,3.34375 -1.5625,4.59375 -0.125,0.125 -0.171875,0.265625 -0.171875,0.296875 0,0.0625 0.21875,0.265625 0.28125,0.265625 0.09375,0 1.15625,-0.84375 1.75,-2.109375 0.515625,-1.09375 0.625,-2.203125 0.625,-3.046875 z m 0,0"
               transform="translate(193.078,110.99)"
               id="path1436" />
          </g>
        </g>
      </g>
      <text
         xml:space="preserve"
         style="font-size:10.5833px;line-height:1.25;font-family:'宋体';-inkscape-font-specification:'宋体';stroke-width:0.264583"
         x="87.452721"
         y="-25.809587"
         id="text1459"><tspan
           sodipodi:role="line"
           id="tspan1457"
           x="87.452721"
           y="-25.809587"
           style="stroke-width:0.264583" /></text>
      <text
         xml:space="preserve"
         style="font-style:normal;font-variant:normal;font-weight:normal;font-stretch:normal;font-size:3.43958px;line-height:125%;font-family:'宋体';-inkscape-font-specification:'宋体';text-align:start;letter-spacing:0px;word-spacing:0px;text-anchor:start;fill:#000000;fill-opacity:1;stroke:none;stroke-width:0.264583"
         x="97.815132"
         y="-46.088684"
         id="text2071-4"><tspan
           sodipodi:role="line"
           x="97.815132"
           y="-46.088684"
           id="tspan2069-6"
           style="font-style:normal;font-variant:normal;font-weight:normal;font-stretch:normal;font-family:'宋体';-inkscape-font-specification:'宋体';stroke-width:0.264583">信道<tspan
   style="font-style:normal;font-variant:normal;font-weight:normal;font-stretch:normal;font-size:3.43958px;font-family:'宋体';-inkscape-font-specification:'宋体';fill:#000000;stroke-width:0.264583"
   id="tspan2067-2" /></tspan></text>
    </g>
  </g>
</svg>
